<svg xmlns="http://www.w3.org/2000/svg" viewBox="0 0 60.12 51.66"><defs><style>.cls-1{fill:none;stroke:#fff;stroke-miterlimit:10;stroke-width:0.75px;}.cls-2{fill:#fff;}</style></defs><title>cards</title><g id="Layer_2" data-name="Layer 2"><g id="Torn_Paper" data-name="Torn Paper"><path class="cls-1" d="M33.27,45,21.31,51a3.06,3.06,0,0,1-4.1-1.38L.69,16.34a3.06,3.06,0,0,1,1.38-4.09L13.26,6.69"/><path class="cls-1" d="M36.67,44.4,23.92,46.58a3.06,3.06,0,0,1-3.52-2.5L14.15,7.48A3.06,3.06,0,0,1,16.65,4l11.9-2"/><path class="cls-2" d="M32.61.75h0a2.6,2.6,0,0,1,.4,0L56.69,3.9a3.07,3.07,0,0,1,2.65,3.45L54.69,42.63a3.08,3.08,0,0,1-3,2.67,2.68,2.68,0,0,1-.4,0L27.56,42.16a3.09,3.09,0,0,1-2.65-3.46L29.56,3.43A3.08,3.08,0,0,1,32.61.75m0-.75a3.84,3.84,0,0,0-3.79,3.33L24.17,38.61a3.83,3.83,0,0,0,3.29,4.29L51.14,46l.5,0a3.84,3.84,0,0,0,3.8-3.32L60.09,7.45a3.85,3.85,0,0,0-3.3-4.3L33.11,0a4.19,4.19,0,0,0-.5,0Z"/></g></g></svg>