<svg xmlns="http://www.w3.org/2000/svg" viewBox="0 0 100 71.75"><defs><style>.cls-1{fill:#fff;}</style></defs><title>dominion2-icon</title><g id="Layer_2" data-name="Layer 2"><g id="Layer_1-2" data-name="Layer 1"><g id="STDOcv.tif"><path class="cls-1" d="M36.25,0A1.44,1.44,0,0,1,37,1.41q.44,12.27.9,24.53c0,.21,0,.41.05.68h1.93c1.16,0,1.25.07,1.7,1.16.32.81.67,1.62,1,2.44.15.41.35.61.81.56s.83,0,1.3,0c.23-1,.45-2,.68-3s.46-1.15,1.46-1.15,2.12,0,3.18,0a1.13,1.13,0,0,1,1.22.86c.33,1,.72,2,1,3,.19.68.69.44,1.1.48s.72,0,.86-.48c.21-.8.54-1.57.77-2.37.28-1,.66-1.82,2-1.42,0-.32,0-.54,0-.75,0-1.84,0-3.67,0-5.5a1.81,1.81,0,0,1,.5-1.35L70.4,4.7c.66-.74,1.21-.74,1.87,0q6.23,7.2,12.43,14.43a2,2,0,0,1,.43,1.18c.09,1.85.11,3.7.15,5.56,0,.22,0,.44,0,.72h2.1c1,0,1.35.28,1.39,1.31q.33,8.18.64,16.35.38,9.59.75,19.17c0,.43.14.62.58.7a32.9,32.9,0,0,1,8.45,3c.31.15.51.5.76.77v.37c-.56.89-.86.94-1.84.54a45.61,45.61,0,0,0-5.94-2.27A82.46,82.46,0,0,0,73,64.13a46.72,46.72,0,0,0-12,1.13c-2.65.66-5.17,1.59-7.05,3.76a1.2,1.2,0,0,1-1,.26c-.82-.17-1-1.11-.31-1.76A16,16,0,0,1,58.2,64l.57-.25a2.63,2.63,0,0,0-1-.17c-8.2-.25-16.41-.34-24.61,0a126.31,126.31,0,0,0-18.5,1.85A36.24,36.24,0,0,0,6,68a8.86,8.86,0,0,0-4.07,3.29,2.38,2.38,0,0,1-.55.49H0V70.63a8,8,0,0,1,2.93-3.25,17.26,17.26,0,0,1,4.9-2.29.86.86,0,0,0,.72-1Q8.3,47,8.1,29.85a1.66,1.66,0,0,1,.49-1.06,28.9,28.9,0,0,1,2.28-1.86,1.19,1.19,0,0,0,.53-1.09q-.12-12.21-.22-24.43A1.4,1.4,0,0,1,11.88,0h4.24a10.11,10.11,0,0,1,.77,1c.56.89,1.1,1.8,1.62,2.72.32.58.85.3,1.28.31.13,0,.32-.36.37-.58.19-.75.27-1.52.5-2.25A5.3,5.3,0,0,1,21.38,0h5a5.41,5.41,0,0,1,.72,1.09c.29.84.46,1.72.73,2.57a.87.87,0,0,0,.44.53.7.7,0,0,0,.89-.35c.54-1,1.12-2,1.72-3A6.77,6.77,0,0,1,31.62,0Zm5.36,61.29c0-.45,0-.82,0-1.2l-.12-14.18a8.43,8.43,0,0,1,1-4.09,5.14,5.14,0,0,1,6.82-2.55,7,7,0,0,1,4.85,6.29q0,7.56-.1,15.12c0,.57.13.75.71.76,4,.05,8,.1,11.93.23A136.76,136.76,0,0,1,84.42,63l3.83.61c-.47-11.71-.93-23.35-1.4-35a6.54,6.54,0,0,1-.77,0c-.57-.1-.8.15-.93.7-.24,1.05-.55,2.09-.84,3.13-.2.74-.47.94-1.25,1s-1.79,0-2.69,0a1.17,1.17,0,0,1-1.27-1c-.34-1.11-.76-2.2-1.06-3.33-.2-.73-.72-.45-1.14-.51s-.58.14-.68.53c-.27,1.07-.58,2.13-.87,3.19-.25.86-.49,1-1.37,1.06H71.61c-.84,0-1.11-.21-1.32-1-.27-1.09-.55-2.18-.8-3.27-.08-.34-.22-.5-.59-.48a15.69,15.69,0,0,1-1.68,0c-.41,0-.54.15-.61.52-.25,1.25-.52,2.49-.8,3.72-.17.73-.44.94-1.18,1-1.08,0-2.16,0-3.25,0a1.09,1.09,0,0,1-1.21-.92c-.24-.91-.49-1.81-.74-2.71-.45-1.62-.45-1.6-2.13-1.57a.57.57,0,0,0-.62.47c-.32,1-.68,2.05-1,3.08a1.08,1.08,0,0,1-1.12.82H51.79a1.07,1.07,0,0,1-1.12-.81c-.21-.63-.43-1.26-.65-1.89-.6-1.74-.6-1.73-2.44-1.67-.35,0-.46.15-.53.46-.2.93-.43,1.86-.63,2.8a1,1,0,0,1-1.15.91c-1,0-2,0-3,0A1.14,1.14,0,0,1,41.08,32c-.37-1-.76-1.94-1.18-2.89-.08-.19-.32-.45-.47-.44a1,1,0,0,0-.74.37c-.59.88-1.11,1.81-1.64,2.73a1.15,1.15,0,0,1-1,.66H32.57a1,1,0,0,1-1.09-.83c-.21-.81-.42-1.62-.67-2.41-.07-.22-.26-.53-.43-.55-.38-.06-.8-.14-1.08.36-.53,1-1.14,1.88-1.71,2.83a1.15,1.15,0,0,1-1.08.61,20.12,20.12,0,0,1-2.06,0,1.62,1.62,0,0,1-1-.57,11,11,0,0,1-1.28-2.14,1.65,1.65,0,0,0-2-1.07.73.73,0,0,0-.71.45c-.37.83-.8,1.64-1.19,2.48a1.11,1.11,0,0,1-1.13.71H15c-.85,0-1.06-.15-1.39-1-.39-1-.78-2-1.2-3-.66.53-1.24,1-1.86,1.48a1.13,1.13,0,0,0-.48,1q.22,15.72.43,31.43c0,.66,0,1.32,0,2.05C20.76,61.74,31.15,61.54,41.61,61.29ZM13.22,2c0,.24,0,.42,0,.6q.09,10.64.19,21.25a5.37,5.37,0,0,0,.52,2.87,19,19,0,0,1,1.24,3.06c.12.3.25.53.62.47s.91.21,1.18-.41c.35-.84.79-1.65,1.18-2.48a1.15,1.15,0,0,1,1.18-.74c.85,0,1.71,0,2.56,0a1.21,1.21,0,0,1,1.17.67c.52.9,1.06,1.8,1.6,2.69a1,1,0,0,0,1.76,0c.56-.9,1.08-1.83,1.69-2.7a1.54,1.54,0,0,1,.92-.61,17.78,17.78,0,0,1,2.31-.09,1,1,0,0,1,1.1.83c.13.5.27,1,.41,1.5.41,1.52.41,1.52,2,1.52.9,0,1.26-.37,1.23-1.29q-.49-13.23-1-26.47c0-.21,0-.41-.06-.66-.65,0-1.25,0-1.85,0a.83.83,0,0,0-.89.49c-.55,1-1.17,2-1.74,3a1.22,1.22,0,0,1-1.16.69H27.38a1.11,1.11,0,0,1-1.21-.94c-.23-.93-.51-1.85-.73-2.78-.09-.37-.24-.52-.63-.5C24.2,2,23.6,2,23,2c-.41,0-.53.16-.6.52-.15.81-.33,1.63-.51,2.44S21.42,6,20.61,6s-1.46,0-2.19,0a1.3,1.3,0,0,1-1.27-.72c-.55-1-1.13-1.95-1.72-2.9a.8.8,0,0,0-.5-.38C14.38,2,13.82,2,13.22,2Zm58.1,4.68-.53.57C67.3,11.11,63.86,15,60.31,18.82a4.5,4.5,0,0,0-1.42,3.75c.12,1.31,0,2.65,0,4l.4.06c1.12.05,1.24.15,1.54,1.22s.63,2.33,1,3.49c.05.18.25.42.4.43.57,0,1.16,0,1.77,0,.31-1.41.6-2.77.89-4.13.17-.77.47-1,1.24-1,1.28,0,2.55,0,3.82,0a1,1,0,0,1,1.19.94c.28,1.11.58,2.21.82,3.33.1.43.3.56.69.5s.87.23,1-.46c.27-1.13.61-2.25.93-3.37.21-.73.48-.94,1.26-.94H78.3c.81,0,1.06.19,1.32,1s.59,1.82.88,2.73c.36,1.09.36,1.07,1.53,1.08.42,0,.56-.15.67-.53A13,13,0,0,0,83.33,26c-.11-1.64-.07-3.29-.15-4.94A1.8,1.8,0,0,0,82.79,20c-2.65-3.11-5.32-6.19-8-9.28Z"/><path d="M61.86,50.05c-.15,0-.48,0-.49-.69V42.81c0-.31.09-.68.49-.68s.49.23.49.69c0,2.19,0,4.37,0,6.56,0,.67-.36.67-.49.67Zm13.14,0c-.15,0-.49,0-.49-.68s0-1.54,0-2.31v-2c0-.77,0-1.53,0-2.29,0-.32.09-.69.49-.69s.48.23.48.68c0,2.19,0,4.37,0,6.56,0,.68-.34.68-.48.68Zm-56.77,0c-.14,0-.48,0-.48-.71q0-3.24,0-6.49c0-.48.17-.73.49-.73s.49.25.5.72v6.49c0,.72-.36.72-.49.72Zm10.78,0c-.16,0-.49,0-.49-.75s0-1.48,0-2.22V45.15c0-.75,0-1.51,0-2.27s.37-.75.49-.75.49,0,.5.75V49.3c0,.75-.34.75-.5.75Z"/><path class="cls-1" d="M18.24,41.62c-.61,0-1,.46-1,1.23,0,2.17,0,4.33,0,6.5,0,.76.36,1.18,1,1.2h0c.62,0,1-.44,1-1.22V42.84c0-.75-.38-1.2-1-1.21Zm43.62,0c-.6,0-1,.46-1,1.19v6.55c0,.76.37,1.18,1,1.19h0c.61,0,1-.43,1-1.17,0-2.19,0-4.37,0-6.56,0-.74-.38-1.19-1-1.2ZM29,41.62h0c-.62,0-1,.46-1,1.26C28,44,28,45,28,46.13s0,2.12,0,3.18c0,.8.36,1.24,1,1.24h0c.63,0,1-.44,1-1.24V42.87c0-.79-.38-1.25-1-1.25Zm46,0h0c-.6,0-1,.45-1,1.18,0,1.09,0,2.17,0,3.25s0,2.21,0,3.31c0,.75.37,1.18,1,1.18h0c.62,0,1-.43,1-1.18,0-2.19,0-4.37,0-6.56,0-.74-.38-1.18-1-1.18Z"/><path d="M24.5,19.36c-.43,0-.48-.43-.48-.62,0-1.83,0-3.66-.05-5.49,0-.63.35-.64.48-.64h0c.13,0,.48,0,.49.62s0,1.31,0,2v1.34h0v.31c0,.62,0,1.25,0,1.87,0,.19-.06.65-.48.65Z"/><path class="cls-1" d="M24.46,12.11h0c-.59,0-1,.42-1,1.14,0,1.83,0,3.66.05,5.5a1,1,0,0,0,1,1.11h0a1,1,0,0,0,1-1.14c0-.9,0-1.79,0-2.69h0c0-.94,0-1.87,0-2.81,0-.71-.4-1.11-1-1.11Z"/><path class="cls-1" d="M74,46.06c0-1.08,0-2.16,0-3.25,0-.73.39-1.18,1-1.18s1,.44,1,1.18c0,2.19,0,4.37,0,6.56,0,.75-.36,1.18-1,1.18s-1-.43-1-1.18C74,48.27,74,47.17,74,46.06Z"/><path class="cls-1" d="M19.24,46.08v3.25c0,.79-.39,1.23-1,1.22s-1-.44-1-1.2c0-2.17,0-4.33,0-6.5,0-.79.39-1.24,1-1.22s1,.46,1,1.21Z"/><path class="cls-1" d="M28,46.13C28,45,28,44,28,42.88c0-.8.37-1.25,1-1.26s1,.46,1,1.25v6.44c0,.8-.36,1.24-1,1.24s-1-.43-1-1.24C28,48.25,28,47.19,28,46.13Z"/><path class="cls-1" d="M60.87,46.05V42.81c0-.74.4-1.19,1-1.19s1,.46,1,1.2c0,2.19,0,4.37,0,6.56,0,.75-.38,1.17-1,1.17s-1-.43-1-1.19Z"/><path class="cls-1" d="M25.49,16c0,.9,0,1.79,0,2.69a1,1,0,0,1-1,1.14,1,1,0,0,1-1-1.11c0-1.84,0-3.67-.05-5.5,0-.72.38-1.13,1-1.14s1,.4,1,1.11c0,.94,0,1.87,0,2.81Z"/><path class="cls-1" d="M69,21.47c0-.33,0-.66,0-1a1.54,1.54,0,0,1,1.5-1.4A1.47,1.47,0,0,1,72,20.35a14,14,0,0,1,.09,2.24,1.53,1.53,0,0,1-3,.06A11.5,11.5,0,0,1,69,21.47Z"/></g></g></g></svg>