<svg xmlns="http://www.w3.org/2000/svg" viewBox="0 0 88.07 95"><defs><style>.cls-1{fill:#fff;}</style></defs><title>nocturne-icon</title><g id="Layer_2" data-name="Layer 2"><g id="Layer_1-2" data-name="Layer 1"><g id="EGrSGr.tif"><path class="cls-1" d="M56.84,0c1.42.15,2.84.3,4.26.47A57.32,57.32,0,0,1,79.82,6l2.9,1.45.26.21c-1,.17-1.85.34-2.73.48a59,59,0,0,0-24.33,9.29c-6.37,4.33-11.55,9.75-14.47,17-4.19,10.35-2.68,20.09,3.64,29.13,4.64,6.62,11,11.21,18.21,14.61a63.18,63.18,0,0,0,21.84,5.69c.84.07,1.67.17,2.51.26a2.46,2.46,0,0,1,.42.18c-2.55,1.49-4.91,3-7.39,4.31a57.26,57.26,0,0,1-23.05,6.29,6.86,6.86,0,0,0-.79.14H50.67c-.24,0-.47-.1-.71-.13-2.92-.39-5.88-.6-8.75-1.21a53.83,53.83,0,0,1-29-16A44,44,0,0,1,.61,54.5C.36,53,.2,51.51,0,50V45a4.29,4.29,0,0,0,.14-.62,41.48,41.48,0,0,1,6.8-20.2C16.22,10.15,29.62,2.83,46,.49,47.5.28,49,.16,50.5,0ZM82.15,85.68l-.08-.2-.28,0a64.85,64.85,0,0,1-19.25-5.5C54.67,76.22,47.86,71.17,43,63.86c-5.12-7.63-7-16-5-25A35.38,35.38,0,0,1,48.75,20.68C55.72,14.11,64,10,73.23,7.6L75,7.16l1.73-.4a1.34,1.34,0,0,0-.23-.19l-.59-.25A57.47,57.47,0,0,0,39.61,3.67c-11.37,2.78-21,8.49-28.34,17.77C2.67,32.4-.17,44.75,3.47,58.3,6.32,69,12.8,77.11,21.77,83.3c10.82,7.47,22.91,10.4,36,9.59a55,55,0,0,0,18.59-4.42C78.31,87.62,80.21,86.62,82.15,85.68Z"/></g></g></g></svg>