<svg xmlns="http://www.w3.org/2000/svg" xmlns:xlink="http://www.w3.org/1999/xlink" viewBox="0 0 455.65 508.67"><defs><style>.cls-1{fill:url(#linear-gradient);}.cls-2{fill:url(#linear-gradient-2);}.cls-3{fill:url(#linear-gradient-3);}.cls-4{fill:url(#linear-gradient-4);}.cls-5{fill:url(#linear-gradient-5);}</style><linearGradient id="linear-gradient" y1="254.34" x2="455.65" y2="254.34" gradientUnits="userSpaceOnUse"><stop offset="0" stop-color="#999"/><stop offset="0.38" stop-color="#ff0040"/></linearGradient><linearGradient id="linear-gradient-2" x1="228.31" y1="254.33" x2="455.65" y2="254.33" gradientUnits="userSpaceOnUse"><stop offset="0"/><stop offset="1" stop-color="#006a3c"/></linearGradient><linearGradient id="linear-gradient-3" x1="122.77" y1="218.48" x2="333.42" y2="218.48" gradientTransform="translate(-2.62 2.65) rotate(-0.66)" gradientUnits="userSpaceOnUse"><stop offset="0" stop-color="#8d8176"/><stop offset="0.29" stop-color="#fff"/><stop offset="0.47" stop-color="#fff"/><stop offset="0.53" stop-color="#333"/><stop offset="0.78" stop-color="#ddd"/></linearGradient><linearGradient id="linear-gradient-4" x1="95.31" y1="216.04" x2="361.31" y2="216.04" gradientUnits="userSpaceOnUse"><stop offset="0.12" stop-color="#ccc"/><stop offset="0.48" stop-color="#fff"/><stop offset="0.53" stop-color="#333"/><stop offset="0.9" stop-color="#fff"/></linearGradient><linearGradient id="linear-gradient-5" x1="221.27" y1="216.5" x2="234.26" y2="216.5" gradientUnits="userSpaceOnUse"><stop offset="0.31" stop-color="#fff"/><stop offset="0.85" stop-color="#666"/></linearGradient></defs><title>victory</title><g id="Layer_2" data-name="Layer 2"><g id="Layer_1-2" data-name="Layer 1"><path class="cls-1" d="M228.31,0h1c7.18,6,15.77,9.2,24.55,11.84,25.85,7.78,52.47,10.23,79.29,10.9,11.29.28,22.6,0,33.92-.73a336.32,336.32,0,0,0,50.81-7,135,135,0,0,0,31-10.95c4.84-2.39,6.38-1.3,6.62,4,.07,1.33.07,2.66.07,4q.06,59.49.11,119c0,7.17,0,7.22-6.85,8.24-14.13,2.1-25.7,9.17-34.94,19.56a73.81,73.81,0,0,0-19,47.19c-1,28.65,8.22,53,33.48,69.11,4.12,2.62,5.07,4.87,3.08,9.41-14.18,32.42-27.88,65-44.52,96.34-12,22.65-25,44.59-41.52,64.33a165.15,165.15,0,0,1-55.32,43.28c-15.59,7.54-32.05,12.8-48.62,17.73-7.15,2.13-14,3.58-21.82,1.3-22.09-6.44-43.74-13.69-63.36-26a197.54,197.54,0,0,1-42.88-36.1,300.67,300.67,0,0,1-27.15-35.58C71.76,387.64,59.71,364.16,48.86,340c-8.79-19.55-16.77-39.41-24.34-59.46-1.47-3.87-.62-6,2.8-8.07A56.37,56.37,0,0,0,45.2,255.44c18.68-28.11,19.94-57.18,3.86-86.66-9.57-17.55-24.64-28.47-44.4-32.31C1,135.76,0,134.08,0,130.79Q.11,68.56.16,6.32C.17.88,3.36-.83,7.93,2.14A82.07,82.07,0,0,0,26.87,11C51.09,19,76.27,21.5,101.51,22.63c28,1.26,55.89-.4,83.4-6C200.24,13.53,215.49,9.83,228.31,0Z"/><path class="cls-2" d="M455.54,12.06c0-1.34,0-2.67-.07-4-.24-5.25-1.78-6.34-6.62-3.95a135,135,0,0,1-31,11,336.32,336.32,0,0,1-50.81,7c-11.33.72-22.63,1-33.92.73-26.82-.67-53.44-3.12-79.29-10.9C245.08,9.2,236.49,6,229.31,0h-1V508.66a49.26,49.26,0,0,0,13.13-2.44c16.57-4.93,33-10.19,48.62-17.73a165.15,165.15,0,0,0,55.32-43.28c16.5-19.74,29.48-41.68,41.52-64.33,16.64-31.3,30.34-63.92,44.52-96.34,2-4.54,1-6.79-3.08-9.41C403.08,259,393.86,234.67,394.86,206a73.81,73.81,0,0,1,19-47.19c9.24-10.39,20.81-17.46,34.94-19.56,6.84-1,6.86-1.07,6.85-8.24Q455.61,71.54,455.54,12.06Z"/><path class="cls-3" d="M330.82,137.71a27,27,0,0,0-49.72-14.79,31.17,31.17,0,1,0-29.33,54.88l-23.32,26.09-21.53-21.32a31.16,31.16,0,1,0-29.52-54.49A27,27,0,1,0,136.85,161a31.16,31.16,0,1,0,53.31,32.08l22.35,22.13-22.79,27a31.16,31.16,0,1,0-52,33.71,27,27,0,1,0,36,37.84A31.17,31.17,0,1,0,201.51,258l23-27.25,25.87,22.68a31.17,31.17,0,1,0,32.77,52.6,27,27,0,1,0,38.48-35.31A31.17,31.17,0,1,0,266.49,242l-25.94-22.73L263.11,194A31.17,31.17,0,1,0,316,161.75,27.06,27.06,0,0,0,330.82,137.71Z"/><path class="cls-4" d="M354.81,216c-21.09,2.69-42.17,4.09-63.25,5.1s-42.17,1.39-63.25,1.4-42.17-.43-63.25-1.39-42.17-2.4-63.25-5.11c21.08-2.71,42.16-4.11,63.25-5.11s42.16-1.4,63.25-1.39,42.16.45,63.25,1.41S333.72,213.35,354.81,216Z"/><path class="cls-5" d="M227.77,90c2.69,21.08,4.08,42.17,5.09,63.25s1.4,42.17,1.4,63.25-.43,42.17-1.38,63.25-2.41,42.17-5.11,63.25c-2.71-21.08-4.11-42.17-5.12-63.25s-1.39-42.17-1.38-63.25.45-42.17,1.4-63.25S225.07,111.08,227.77,90Z"/></g></g></svg>