<svg xmlns="http://www.w3.org/2000/svg" viewBox="0 0 80.58 95"><defs><style>.cls-1{fill:#fff;}</style></defs><title>adventures-icon</title><g id="Layer_2" data-name="Layer 2"><g id="Layer_1-2" data-name="Layer 1"><path class="cls-1" d="M0,81.33c.15-.58.32-1.15.44-1.73.61-3.08,2.43-4.21,5.67-4.62C13.57,74,21,72.87,28,70c.44-.18.88-.39,1.38-.62a1.37,1.37,0,0,0-.23-.27c-6.19-4.37-9.9-10.43-12-17.57a28.93,28.93,0,0,1-1.2-11.33A18.59,18.59,0,0,1,20.53,29.7c3-3.39,6.19-6.61,9.41-9.79,4.89-4.85,9.43-10,12.75-16,.67-1.23,1.29-2.49,2-3.86.18,1.7.34,3.27.51,4.84a65.19,65.19,0,0,0,4.39,16.68A49.65,49.65,0,0,1,52.8,32.4,46.29,46.29,0,0,1,53,43.68c-.22,2.29-.58,4.56-.88,6.85,0,.2,0,.41,0,.76a15.53,15.53,0,0,0,4-5.42,12.79,12.79,0,0,0,1-5.39c0-1.76-.08-3.52-.19-5.28a25.74,25.74,0,0,1,5.35-17.26c.7-1,1.45-1.89,2.19-2.83,0-.06.13-.08.19-.12-.32,2.53-.66,5-.93,7.56a35.94,35.94,0,0,0,1.74,16.73,25,25,0,0,1-1.38,20.85A21.7,21.7,0,0,1,57,68a3.16,3.16,0,0,0-.66.55,15,15,0,0,0,8.34-4.69,20.62,20.62,0,0,0,4.41-8.58,15.07,15.07,0,0,1,.22,7.6c-.94,3.5-3.49,5.18-6.86,5.72-1.73.28-3.5.28-5.17.4a1.72,1.72,0,0,0,.34.2q8,3.14,16,6.25a8.22,8.22,0,0,0,1.73.4c2.74.46,4.76,1.73,5.31,4.67v1.14c-.15.48-.28,1-.47,1.45a12.26,12.26,0,0,1-10.48,8,4,4,0,0,1-4.5-2.28,9.89,9.89,0,0,0-2-2.8A97.3,97.3,0,0,0,49,75.85c-.14-.09-.31-.15-.63-.32.15.29.19.41.26.51a32.38,32.38,0,0,1,4,7.95c1,2.77,1.12,5.36-1.16,7.6-.37.36-.74.71-1.14,1A12,12,0,0,1,45.26,95H42.65a2.44,2.44,0,0,0-.46-.14A12.15,12.15,0,0,1,34.79,91a3.16,3.16,0,0,1-.69-1.08,9.69,9.69,0,0,1-.18-6.07c.45-1.53.94-3,1.32-4.6.33-1.36.54-2.76.82-4.27l-.43.19A161.45,161.45,0,0,1,20.1,84.45a61.49,61.49,0,0,0-8.25,5.18C9,91.88,4.06,91.56,2,88.13a15.12,15.12,0,0,1-1.2-2.46c-.35-1-.55-2-.82-3Zm47,4c.08-.78-.56-.75-1-1-.4.74.19.9.6,1.15s.32,1.12,1.34.63Zm24.42-7C72,77.73,73,77.73,73.52,77a6.86,6.86,0,0,0-1.86.79c-.15.08-.19.37-.28.56-.11-.06-.29-.21-.32-.18-.77.64-1.52,1.3-2.27,2l.11.09Zm3.86,3.94a1.26,1.26,0,0,0-.34,1.51c.69.1.71-.43.73-.82,0-.21-.27-.44-.41-.66.36-.63-.11-.8-.52-1l-.67.56.33-.69c-1.22-.46-1.49-.29-1.35.86l1-.2.51.8ZM9.17,79.63a2.21,2.21,0,0,0,.16.65c.34.57.71,1.13,1.09,1.68.05.08.17.13.31.23a4.26,4.26,0,0,0-1.58-2.54L7,77.69l-.23.19a1.58,1.58,0,0,0,.27.48,18.93,18.93,0,0,0,1.54,1.17C8.73,79.64,9,79.6,9.17,79.63Zm61.36,7.78c.51.64,1,.08,1.57,0,.09,0,.14-.33.28-.71l-1.74.52-.88-.8L69,87C69.51,87.43,69.86,88,70.53,87.41Zm-.32-5.9c.27-.22.51-.48.79-.67.48-.32.8-.69.55-1.3l.44.82L73.2,79l-.2-.21-1.45.81c-.39.31-.77.63-1.18.92a.65.65,0,0,0-.14,1.06l-.62-.31-1.1,1.45.13.24c.23-.06.53,0,.67-.2A10.73,10.73,0,0,0,70.21,81.51Zm5.36,5.38a7.49,7.49,0,0,0,2.33-3.14.58.58,0,0,0-.45.16c-.6.79-1.18,1.6-1.74,2.42-.11.15-.08.38-.12.58-.15,0-.33-.09-.44,0-.76.41-1.5.84-2.23,1.29-.11.07-.12.27-.24.56A5.75,5.75,0,0,0,75.57,86.89Zm-6.41-6.26c.22,0,.52.12.65,0a10.81,10.81,0,0,0,1.38-1.24c.13-.14.11-.43.16-.65L71,78.61c-.62.68-1.23,1.36-1.84,2l-1.84,1.88A1.75,1.75,0,0,0,69.16,80.63ZM75.8,81.9l.64-.85-1.08-1-.45.86.89,1,.09,1.67c.87,0,1.16-1,.59-2.06Zm-71.49-1-.78-.25c0,1-.09,1.8-.09,2.64,0,.14.23.27.35.41a3.53,3.53,0,0,0,.15-.46c.12-.78.24-1.57.35-2.36a3.35,3.35,0,0,0,.44-.57A5.34,5.34,0,0,0,5,79.38C3.78,80,3.73,80.2,4.31,80.91Zm64.11,6.33-.29.58c1,.85,1.57.9,1.85.17-.25-.14-.5-.28-.76-.41l-.76-.37-.11-1.94c-.33.16-.77.28-.78.41a16.41,16.41,0,0,0,.15,2Zm9.54-7c.5-.73-.11-1.11-.51-1.53s-.7-.58-1.13-.11l.16-.55c-.71-.18-1.4-.41-2.11-.52-.49-.07-.93.11-.77.65.7.16,1.32.31,1.94.42a4.42,4.42,0,0,0,.81,0L78,80.19a1.26,1.26,0,0,0-.16.43c0,.94,0,1.88,0,2.85.09,0,.24,0,.31-.11a3.75,3.75,0,0,0,.32-3C78.4,80.24,78.13,80.26,78,80.22ZM3.92,89l-1.4-1.88-.23.21c.5.59.67,1.49,1.66,1.64.19.27.33.67.58.76.83.32,1.7.52,2.71.8-.1-.4-.11-.66-.18-.68C6,89.52,5,89.25,3.92,89Zm63.3-.64c0,.93.81.89,1.38,1.09s.92.11,1-.53l-2-.89-.42-2.26-.48,0c1.12-.6.81-1.89,1.33-2.86-.31,0-.66.09-.74.28a19.86,19.86,0,0,0-.71,2.14c0,.12.09.28.14.43A1.73,1.73,0,0,0,67.22,88.33Zm8.28-8.61L76.77,81c.21-.29.59-.65.53-.74a10,10,0,0,0-1-1.22l-.8.66.35-.7c-1.6-.8-2.24-.69-2.68.48ZM77,77.52c0-.1.09-.24,0-.28a4.28,4.28,0,0,0-3.07-.5c-.13.07-.2.27-.26.35.9.23,1.69.44,2.49.62a3.19,3.19,0,0,0,.76,0l1.64,1.93a9.08,9.08,0,0,1,.08,2.79,9.29,9.29,0,0,1-5.27,6.22,31.05,31.05,0,0,1-4.2,1.18,4.52,4.52,0,0,1-2.54-1.19c-1.36-2.06-.21-4,.27-6-.74,1.65-1.59,3.26-1.33,5.13.06.43.47.8.72,1.2.08.92.86,1,1.5,1.25s1.11.33,1.39-.41c-.11.74.44.47.73.42a11.48,11.48,0,0,0,9.4-7.43,4,4,0,0,0,.18-2.94c-.07-.19-.31-.33-.47-.49A1.85,1.85,0,0,0,77,77.52ZM3.79,76.81c-.21-.44-.49-.38-.84-.16-1.29.79-1.62,2.11-1.94,3.43-.12.48-.17,1-.25,1.47.21,0,.27,0,.28-.08.31-1.91.85-3.69,2.73-4.69L6.65,77c-.06-.13-.12-.43-.22-.45a23.32,23.32,0,0,0-2.36-.26C4,76.24,3.88,76.61,3.79,76.81ZM47,81.48c-.08-.12-.14-.32-.25-.35a6.42,6.42,0,0,0-3.61-.1l.11.58c1,.07,2,.16,3,.18.26,0,.53-.23.8-.35.09.23.11.56.27.68.7.49,1.44.92,2.24,1.41l.53-.34a4.94,4.94,0,0,0-2.49-1.81C47.39,81.33,47.17,81.45,47,81.48Zm23.53.39a4.43,4.43,0,0,0-1.71,2.91c0,.13.15.38.1.42-.56.52-.23,1,.12,1.53a2.32,2.32,0,0,0,.42-1c0-.29-.06-.62,0-.87.4-.93.86-1.83,1.3-2.74s1.93-.83,2.14-2A3.93,3.93,0,0,0,70.51,81.87ZM37.93,92.38c.13.2.22.5.41.58.9.39,1.83.72,2.75,1.06a.7.7,0,0,0,1-.39c-.17.56.2.62.6.68a9.86,9.86,0,0,0,9.52-4.68,3.93,3.93,0,0,0,.44-3h-1a4.94,4.94,0,0,1-1.2,3.71,8.68,8.68,0,0,1-7.6,3.17,2.33,2.33,0,0,0-.78.21,3,3,0,0,0-.65-.45c-.7-.28-1.45-.45-2.12-.79a1.13,1.13,0,0,0-1.36,0l.29-.46a19,19,0,0,1-2.29-2.16c-.42-.54-.7-.69-1.33-.35.59,1.48,1.89,2.21,3.07,3C37.69,92.52,37.83,92.42,37.93,92.38Zm.63-10.44a3,3,0,0,0,.95,0c1.9-.79,3.78-1.58,5.91-1.37.63.06,1.26.17,1.9.26l3.15,2-.1.18.91-.27a6.37,6.37,0,0,0-3.08-2.22c-.46-.19-.71-.1-.89.33.29-.79-.39-.68-.76-.75-2.81-.49-5.3.54-7.77,1.66-.08,0-.13.17-.19.25-1.05.23-1.57,1-2.26,1.82C37,84,38.64,82.52,38.56,81.94Zm-29-2.68c0-.1.06-.26,0-.3-.82-.76-1.64-1.5-2.47-2.25-.21.29-.28.48-.23.52.89.68,1.8,1.34,2.69,2a1.21,1.21,0,0,0,.16.44,6.63,6.63,0,0,1,1.74,3.43c.38,2.12.55,4.18-1.35,5.77-.12.1-.06.42-.09.63-.21-.08-.44-.25-.62-.21-.67.15-1.33.37-2.13.6.14.18.24.47.41.53a2.71,2.71,0,0,0,2.39-.78c.21-.06.51,0,.63-.17A5.65,5.65,0,0,0,12,87.66a8.6,8.6,0,0,0-1.87-8.24C10,79.3,9.75,79.31,9.56,79.26ZM34.19,38.77c-.28.3-.39.41-.48.53a25.65,25.65,0,0,0-5.17,13.89,17.37,17.37,0,0,0,3.1,11.39c3.31,4.61,9.78,8,17,4.14A19.88,19.88,0,0,0,58.75,55.35a43.27,43.27,0,0,0,.59-4.43l-.28-.08c-3.86,5.7-8.69,10.23-15.15,12.76-.3-1.72-.49-3.33-.86-4.91a19.06,19.06,0,0,0-4.43-7.77A17.13,17.13,0,0,1,34.19,38.77ZM40,85.27a.79.79,0,0,0,1.21-.06,5.06,5.06,0,0,1,4-1.35c.52,0,.67-.12.7-.56A6.38,6.38,0,0,0,40,85.27Zm5.53-1a4.55,4.55,0,0,0-4.9,2.46c.63-.2,1.25-.21,1.54-.52a3.82,3.82,0,0,1,3-1.25l.25,0Zm7.28,2.08c-.4-1.11-.73-2.1-1.14-3.06-.07-.16-.46-.24-.71-.24-.07,0-.27.38-.22.53.3.92.65,1.82,1,2.77ZM71.88,82l-.26-.09c-1.61,1.37-2.32,3-1.69,4.11l.71-.38a3,3,0,0,1,.85-2.67A3,3,0,0,0,71.88,82ZM40.1,90.35A8.3,8.3,0,0,1,38.9,89c-.46-.87-.92-.91-1.58-.19.38,1,1.31,1.47,2.1,2.1Zm-4.21-1.24A6.83,6.83,0,0,0,38,91.31c.43.37.74.34.91,0l-2.49-2.12.36-.4Zm3.46-6.81c.29.59.58.75,1.13.47a10.19,10.19,0,0,1,2-.76c.56-.14.6-.43.43-1Zm-34.5,2c.07-.28.25-.59.19-.83A2.52,2.52,0,0,1,5.65,81c-.08-.12-.14-.23-.22-.34s-.15-.14-.29-.27C4,81.63,4.1,82.93,4.85,84.35Zm42.46,7.92c-.33-.12-.54-.28-.65-.23a7.51,7.51,0,0,1-3.72.53c-.17,0-.35.17-.53.27A6.33,6.33,0,0,0,47.31,92.27ZM40,87.82a2.45,2.45,0,0,1,.57-2.06c-.41-.07-.92-.16-1.08,0a2.66,2.66,0,0,0-.62,2.27Zm-4.21-1.39.17.28c.34-.08.82,0,1-.25a12.44,12.44,0,0,0,1-1.77L37,84.4Zm7,5.52.11.23a5.32,5.32,0,0,0,3.75-.67.82.82,0,0,0-.59-.25c-.85.08-1.7.17-2.54.31A2.83,2.83,0,0,0,42.75,92Zm-.09-.5c-.44-.15-.83-.26-1.2-.42s-.7-.36-1.08-.56l-.64.58C41.18,92.13,42.33,92.3,42.66,91.45Zm.89-8.39c.87-.77,2.08.31,2.84-.6l0-.34H43.23Zm6,.76a15.4,15.4,0,0,1,.69,2c.11.57.36.63,1,.46l-.93-2.82c-.23.09-.33.12-.43.17Zm-2.34,8.27.32.23,3-2.61c-.39-.15-.58-.27-.63-.23-.86.71-1.71,1.42-2.55,2.15C47.31,91.73,47.3,91.94,47.24,92.09Zm-4.33-9.91-2.67,1v.23c.27.1.59.35.81.29.71-.19,1.39-.51,2.13-.79Zm7.27,7.13c.16,0,.53,0,.56-.14.2-.74.36-1.49.49-2.25,0-.09-.27-.32-.41-.33s-.31.24-.34.4C50.37,87.69,50.29,88.4,50.18,89.31ZM38.9,91.57l-.06.42c1,.3,1.91.63,2.88.9.15,0,.37-.16.62-.28-1-.4-1.77-.75-2.58-1A2.74,2.74,0,0,0,38.9,91.57ZM36.63,84.2c-.63-.27-1.8,1.15-2,2.56.33-.15.68-.19.8-.38C35.9,85.7,36.23,85,36.63,84.2ZM46.12,91l.1-.46a2.67,2.67,0,0,0-.75-.22c-.48,0-1,.15-1.44.14s-.75.17-.69.88ZM35.37,89V86.88l-.86,0v2.37Zm1.5-2.08c-.47.08-1,.09-1.06.18a12.71,12.71,0,0,0,0,1.75C37.29,88.74,36.62,87.71,36.87,86.87Zm1.81,1.59,1.63,1.59.82-.54-1.25-1.4Zm-1.45-4.35c1.38.78,1.56-.67,2.46-.92l-.74-.7Zm1.26,2.58.73-1.33c-1.09-.41-1.63,0-1.85,1.33ZM77,83.43c.73,0,1-1.41.42-2.89a3.58,3.58,0,0,0-.49,1A18.07,18.07,0,0,0,77,83.43ZM46.45,83c.47.23.92.41,1.33.66.72.46.71.48,1.26,0-.61-.4-1.18-.78-1.76-1.14S46.51,82.33,46.45,83Zm.14,7.78,2-1.71-.82-.39c-.26.26-.47.5-.71.72s-.56.42-.87.66ZM4.76,86.92c-.08,1,.55,1.42,2.1,1.36.08-.45,0-.73-.54-.84A10.56,10.56,0,0,1,4.76,86.92Zm41.94,4c.45.7,1.95-.27,2.75-1.82C48.2,89.46,47.74,90.65,46.7,90.93Zm-42.53-13-.42-.8c-.58.6-1.08,1.1-1.52,1.65,0,.06.25.41.35.57ZM40.64,84l-.81-.62L38.5,84.66C39.68,85.58,40,84.42,40.64,84Zm2.53,6.41c-1.84-.7-1.84-.7-2.47-.11l2.15.85Zm-1.71-1.15.81-.7c-.86-1-.86-1-2.13-.38Zm6.8-2.56-.21,1.72.82.33.3-2.05Zm19.29-1.43c1.46-.22.91-1.48,1.41-2.16-.33,0-.66.08-.75.27C68,84,67.8,84.54,67.55,85.28ZM6.48,78c-.07-.79-1.25-1.12-2.37-.67.08.17.15.45.25.47C5,77.89,5.73,77.93,6.48,78Zm-4.26,1.2-.29,0c-.17.72-.35,1.45-.48,2.18,0,.12.16.27.24.41.13-.1.33-.18.37-.31a9.37,9.37,0,0,0,.39-1.56A1.85,1.85,0,0,0,2.22,79.19ZM69.7,89.3c1.62,0,2.77-.37,2.82-1C71.6,88.8,70.42,88.41,69.7,89.3ZM4.5,88.07c-.26.74.72,1.22,2.49,1.18C7,89.16,7,89,7,89,6.16,88.66,5.33,88.37,4.5,88.07Zm33.92-1.14c-1.35-.07-1.52.16-1.15,1.45l1.15-.55Zm10.65-.65-.7-1.75-.83.5C48,85.48,47.73,86.62,49.07,86.28ZM9.63,88.7c1.28-.83,1.85-2.07,1.46-2.63-.47.63-1,1.3-1.45,2C9.55,88.2,9.63,88.44,9.63,88.7ZM49.22,89c.17,0,.49-.06.51-.14a19.2,19.2,0,0,0,.36-2s-.27-.23-.34-.2a.6.6,0,0,0-.28.38C49.37,87.61,49.31,88.22,49.22,89ZM10.3,85.52a9,9,0,0,1-1,1.34c-.41.39-.35.63,0,.94C10.37,87,10.72,86.16,10.3,85.52Zm35.44,4.39c-.23-.68-.23-.71-1.41-.57-.25,0-.47.37-.7.56l.16.26Zm.59-6.67-.34.83c.75-.1,1.16,1.3,2.12.18Zm3.48,3.2.27-.21-.81-2.17-.31.07c-.53.67.34,1.19.36,1.8C49.32,86.1,49.64,86.27,49.81,86.44ZM4.22,78.28,2.85,79.65l.74.56C3.55,79.46,5,79.43,4.22,78.28ZM75,80.14c-1.34-.56-1.7-.47-1.87.46l1.51.25ZM7,87.73c.19.28.34.66.47.66a11.44,11.44,0,0,0,1.58-.3l-.36-.7Zm35.32-1,2.85-1.27A2.43,2.43,0,0,0,42.34,86.76Zm-.52,2.62c1.12.8,1.53.78,1.78-.06C42.28,88.64,42.62,88.61,41.82,89.38ZM72.29,86c-.79.34-1.58-.54-2.21.32A1.38,1.38,0,0,0,72.29,86Zm-69.5-5.9a6.59,6.59,0,0,0-.23.83c-.05.4-.45.86.12,1.21.17-.32.37-.62.51-.95S3.56,80.28,2.79,80.09Zm70.65-2.33c-1.4.19-2,.65-1.69,1.37C72.23,78.57,73.28,78.86,73.44,77.76Zm3.79,6.17-.34-.26-1.78,2.5.27.2Zm-.91.07-.19-.19c-.2.1-.46.14-.58.3-.36.46-.67,1-1,1.45.16.06.42.21.46.17C75.46,85.17,75.89,84.59,76.32,84ZM8.87,86.78c1-.72,1.15-1.36.34-1.88C9.41,85.64,8,85.91,8.87,86.78Zm.52,1.61c-.72.16-1.25.26-1.77.4-.12,0-.22.17-.33.26.13.1.27.3.37.28A8.46,8.46,0,0,0,9.15,89C9.26,89,9.29,88.64,9.39,88.39ZM2.18,84.23c-.49.3-.27,1.34.49,2.27C3,86.11,2.85,85.52,2.18,84.23Zm45.29,4.31c-.83-.78-1,.29-1.49.38-.09,0-.09.42-.13.65l.25.11Zm-36.4-2.9.36,0L11,82.46l-.28,0ZM6.45,78.76c-.47-.66-1.13-.56-1.86-.49C5,79.46,5.88,78.53,6.45,78.76Zm-1,7.17c-.35.88-.2,1,1.28,1.21C7,86,5.73,86.57,5.45,85.93Zm69.61.37L72.4,87.75A2.93,2.93,0,0,0,75.06,86.3Zm-2.48,1.06,2.23-1.26A2,2,0,0,0,72.58,87.36Zm-64-.24-.42-.9c-.39.21-.75.38-1.08.6,0,0,.07.39.11.39C7.61,87.21,8,87.17,8.6,87.12Zm-5.32-3c-.7.27-.66.76.09,1.82C4.14,85.23,3.14,84.73,3.28,84.11ZM1.53,82.05l-.23.2.37,1.87c.8-.54.18-1.13.26-1.63C2,82.37,1.67,82.2,1.53,82.05Zm7.8.77c.17.64-.25,1.44.48,1.92C9.87,84,10,83.31,9.33,82.82Zm61.5,2.42.21.12L72,83A2.36,2.36,0,0,0,70.83,85.24ZM2.27,82.33a11.37,11.37,0,0,0,.25,1.33c0,.09.44.18.52.11C3.33,83.47,2.88,82.47,2.27,82.33ZM72.48,88l-.13-.37-2.22.53.1.38ZM3.15,86.55c-.31.53-.09.93.85,1.66C4.25,87.72,4.25,87.72,3.15,86.55ZM47.78,88.2c0-.49,0-.92,0-1.34a2.89,2.89,0,0,0-.63,0C47.11,88,47.11,88,47.78,88.2ZM6.62,86l.23-.22-1-1C5.4,85.73,5.58,86,6.62,86Zm36.21,1.13-.25-.21c-.18.16-.54.39-.51.47.12.31.43.85.55.82C43.45,88,42.51,87.48,42.83,87.14Zm2.52,1.53c1-.17,1.57-1,1.22-1.79ZM41.71,86.9l-1.32-.09,0,.93C40.85,87.45,41.61,87.86,41.71,86.9ZM5.12,79.24c.22,1,.85.55,1.41.61C6.31,78.9,5.69,79.27,5.12,79.24Zm-1,6.58-.38.07c-.57.67.24.93.49,1.36l.21,0Zm6.2-3.15-.27,0,.27,2.52.33,0Zm63.36,1.27c-.06-.72-.44-1-.94-.83a.48.48,0,0,0-.28.24c0,.1.05.31.13.33C73,83.79,73.32,83.85,73.71,83.94ZM8.39,85.73c.37-.44.88-.81.19-1.41C8.29,84.77,7.65,85.09,8.39,85.73ZM8,86c0-.77-.38-.92-1-.61l.11.8Zm-3.19.33c.25-.49,0-1.31-.35-1.41a.31.31,0,0,0-.29.06.41.41,0,0,0,0,.35C4.3,85.66,4.53,86,4.8,86.34Zm69.1-1.21c.51.25,1-.25,1.27-1.17L75,83.81ZM1.34,84.44l-.22.08,1,2.68c.14-.25.19-.31.18-.34C2,86.05,1.65,85.24,1.34,84.44Zm4.6-2.94a1.3,1.3,0,0,0-.39,2Zm3.32,1,.17-.14A1.72,1.72,0,0,0,8,80.9Zm63.14-.16.48-1.1C72.17,81.37,71.64,81.54,72.4,82.38ZM8.09,80.43l-1.31-1A1,1,0,0,0,8.09,80.43ZM10,82.3a2.3,2.3,0,0,0-1.34-1.87Zm62.5,3.8.18.32L74,85.65l-.19-.33ZM6.92,78.68l-.19.24,1.66,1.26L8.55,80Zm38,7.55L44.83,86l-1.54.59C44.16,87,44.59,86.71,44.92,86.23Z"/><path class="cls-1" d="M23.54,1.91A20.42,20.42,0,0,1,27.6,10a8.77,8.77,0,0,1-1.85,7.4c-.86,1.11-1.78,2.18-2.7,3.25-3.48,4-4.48,6.08-5.53,11.26-.46-1.48-1-2.95-1.37-4.45a11.45,11.45,0,0,1,1.68-9.23c1.2-1.93,2.42-3.86,3.46-5.88a21.18,21.18,0,0,0,2.19-9.49C23.49,2.56,23.52,2.24,23.54,1.91Z"/><path class="cls-1" d="M55,6.31a55,55,0,0,0,1.28,24.8C54,29.82,51.09,24,50.61,20.31A18.56,18.56,0,0,1,55,6.31Z"/><path d="M43.71,94.5c-4.71,0-8.53-3.24-8.53-7.23S39,80,43.71,80s8.54,3.25,8.54,7.24S48.42,94.5,43.71,94.5Z"/><path class="cls-1" d="M43.71,80.53c4.43,0,8,3,8,6.74S48.14,94,43.71,94s-8-3-8-6.73,3.6-6.74,8-6.74m0-1c-5,0-9,3.47-9,7.74s4,7.73,9,7.73,9-3.46,9-7.73-4-7.74-9-7.74Z"/><path d="M8.35,91.11c-2.47,0-5.09-2-6.54-4.89a9.36,9.36,0,0,1-1-5.68,4.82,4.82,0,0,1,2.48-3.69,4.08,4.08,0,0,1,1.84-.42c2.46,0,5.09,2,6.53,4.88,1.9,3.82,1.22,8-1.51,9.37A4.15,4.15,0,0,1,8.35,91.11Z"/><path class="cls-1" d="M5.17,76.93h0c2.27,0,4.72,1.85,6.09,4.61a8.87,8.87,0,0,1,.91,5.37A4.35,4.35,0,0,1,10,90.24a3.63,3.63,0,0,1-1.61.37c-2.28,0-4.73-1.86-6.09-4.61-1.77-3.57-1.19-7.47,1.29-8.7a3.54,3.54,0,0,1,1.62-.37m0-1a4.65,4.65,0,0,0-2.07.47c-3,1.48-3.76,6-1.74,10,1.58,3.19,4.4,5.17,7,5.17a4.65,4.65,0,0,0,2.06-.48c3-1.48,3.76-6,1.74-10-1.58-3.18-4.4-5.16-7-5.16Z"/><path d="M70.87,90.1A3.93,3.93,0,0,1,68,89c-1.94-1.94-1.2-5.84,1.66-8.69a8.65,8.65,0,0,1,5.82-2.73,3.9,3.9,0,0,1,2.86,1.08c1.94,1.94,1.2,5.83-1.65,8.68a8.67,8.67,0,0,1-5.83,2.73Z"/><path class="cls-1" d="M75.49,78.11A3.5,3.5,0,0,1,78,79c1.71,1.71,1,5.37-1.66,8a8.12,8.12,0,0,1-5.47,2.58,3.53,3.53,0,0,1-2.51-.92,3.87,3.87,0,0,1-.84-3.48A8.72,8.72,0,0,1,70,80.7a8.16,8.16,0,0,1,5.47-2.59m0-1A9.16,9.16,0,0,0,69.31,80c-3,3.05-3.79,7.26-1.65,9.39a4.39,4.39,0,0,0,3.21,1.22,9.12,9.12,0,0,0,6.18-2.87c3-3,3.79-7.26,1.66-9.4a4.47,4.47,0,0,0-3.22-1.22Z"/></g></g></svg>