<svg xmlns="http://www.w3.org/2000/svg" viewBox="0 0 107.49 120"><defs><style>.cls-1{fill:#ed1c24;}.cls-2{font-size:60px;font-family:Times-Bold, Times;font-weight:700;}</style></defs><title>curse</title><g id="Layer_2" data-name="Layer 2"><g id="Layer_1-2" data-name="Layer 1"><path class="cls-1" d="M53.86,0h.24a15.71,15.71,0,0,0,5.79,2.79,70,70,0,0,0,18.7,2.57c2.67.07,5.33,0,8-.17a79.16,79.16,0,0,0,12-1.64A31.79,31.79,0,0,0,105.89,1c1.14-.56,1.5-.31,1.56.93,0,.32,0,.63,0,.94q0,14,0,28.07c0,1.69,0,1.71-1.62,1.95a13.51,13.51,0,0,0-8.24,4.61A17.44,17.44,0,0,0,93.15,48.6c-.23,6.76,1.94,12.51,7.9,16.3,1,.62,1.19,1.15.73,2.22-3.35,7.65-6.58,15.35-10.51,22.73A86.8,86.8,0,0,1,81.48,105a39,39,0,0,1-13,10.21A75.25,75.25,0,0,1,57,119.42a8.67,8.67,0,0,1-5.15.31c-5.21-1.52-10.32-3.23-15-6.14a46.82,46.82,0,0,1-10.11-8.52,71.29,71.29,0,0,1-6.41-8.39,120.39,120.39,0,0,1-8.81-16.46c-2.08-4.61-4-9.3-5.75-14a1.33,1.33,0,0,1,.67-1.9,13.28,13.28,0,0,0,4.21-4c4.41-6.63,4.71-13.49.91-20.44A14.64,14.64,0,0,0,1.1,32.19,1.14,1.14,0,0,1,0,30.86Q0,16.18,0,1.49C0,.21.79-.2,1.87.5A19.16,19.16,0,0,0,6.34,2.59,64.52,64.52,0,0,0,24,5.34,80.63,80.63,0,0,0,43.62,3.93C47.24,3.19,50.84,2.32,53.86,0Z"/><text class="cls-2" transform="translate(28.76 72.92)">-1</text></g></g></svg>