<svg xmlns="http://www.w3.org/2000/svg" viewBox="0 0 89.36 95"><defs><style>.cls-1{fill:#fff;}</style></defs><title>intrigue2-icon</title><g id="Layer_2" data-name="Layer 2"><g id="Layer_1-2" data-name="Layer 1"><g id="qmxXhE.tif"><path class="cls-1" d="M86,95a5.53,5.53,0,0,1-2.83-3.46,1.25,1.25,0,0,0-.3-.47A114.28,114.28,0,0,0,69.2,76.61a30.8,30.8,0,0,0-3.67-2.5,1.26,1.26,0,0,0-1-.09,22.61,22.61,0,0,1-11.76.75c-7.71-1.29-14.63-4.54-21.13-8.72A80,80,0,0,1,5.47,39.27,53.85,53.85,0,0,1,.16,27.12c0-.18-.09-.36-.16-.64,1.33.25,2.59.5,3.85.72a45.73,45.73,0,0,0,16.94.11c9.71-2,16.08-8.43,18.07-18.2A40.39,40.39,0,0,0,39.67,0h.16a3.12,3.12,0,0,0,.37.29A67.48,67.48,0,0,1,62.6,21.45c6.62,9.81,11.19,20.41,11.88,32.39.29,5-.37,9.83-3,14.25a1.38,1.38,0,0,0-.07.9,14.54,14.54,0,0,0,2.22,4.93A85.18,85.18,0,0,0,86,87.92a1.28,1.28,0,0,0,.38.29,4.82,4.82,0,0,1,3,3.54v.49A4.09,4.09,0,0,1,87.09,95ZM43.44,38.37a11.42,11.42,0,0,0,8.89-6.8,27.11,27.11,0,0,0,2.37-9.22A7.29,7.29,0,0,0,53,16.46c-2.05-2.18-5.14-1.75-6.32,1A42.69,42.69,0,0,0,43,34.82,28.69,28.69,0,0,0,43.44,38.37Zm-3.1,1.08c-.91-.4-1.72-.83-2.58-1.12a30.12,30.12,0,0,0-8.21-1.39,40.11,40.11,0,0,0-10.66.58A3.44,3.44,0,0,0,16.1,41a4.13,4.13,0,0,0,1.74,3.5,9.86,9.86,0,0,0,3.35,1.71A23.68,23.68,0,0,0,33.3,46,11,11,0,0,0,40.34,39.45Z"/><path class="cls-1" d="M87.09,95a4.09,4.09,0,0,0,2.27-2.76V95Z"/></g></g></g></svg>