<svg xmlns="http://www.w3.org/2000/svg" viewBox="0 0 81.43 113.12"><defs><style>.cls-1,.cls-3{fill:#009245;}.cls-2,.cls-4{fill:#fff;}.cls-3{opacity:0.65;}.cls-4{stroke:#000;stroke-miterlimit:10;}.cls-5{fill:#603813;}.cls-6{fill:#42210b;}</style></defs><title>reaction</title><g id="Layer_2" data-name="Layer 2"><g id="Layer_1-2" data-name="Layer 1"><g id="B8lrSG.tif"><path class="cls-1" d="M0,21.13c5.86-.81,11.41-1.28,16.83-2.4C25,17.05,32.23,13.26,38.92,8.36c.9-.66,1.56-1.23,2.8-.34A61,61,0,0,0,80.06,19.68c.3,0,.6.05,1.17.09C81,37.77,78.39,55.2,71,71.69c-6.53,14.45-18.71,29.17-29.5,35.62C11.49,86.29,1.55,55.65,0,21.13ZM76.05,25c-18.53-2.38-19.17-2.6-34.52-10.75a2.87,2.87,0,0,0-2.38.32A66.57,66.57,0,0,1,12.3,24.88c-2.26.33-4.53.56-6.94.86,2.21,30,11.32,56.35,36.21,75.3C66.05,81.45,74.55,54.9,76.05,25Z"/><path class="cls-2" d="M76.05,25c-1.5,30-10,56.5-34.48,76.09-24.89-19-34-45.3-36.21-75.3,2.41-.3,4.68-.53,6.94-.86A66.57,66.57,0,0,0,39.15,14.52a2.87,2.87,0,0,1,2.38-.32C56.88,22.35,57.52,22.57,76.05,25Zm-34.54,74A81.51,81.51,0,0,0,66.68,64.36a117.28,117.28,0,0,0,7.54-38A69.32,69.32,0,0,1,41.68,16.26a3,3,0,0,0-2.57.27,68.4,68.4,0,0,1-22.39,9.22c-3.08.64-6.21,1.05-9.55,1.6C9.46,55.62,18.21,80.65,41.51,98.94Z"/><path class="cls-3" d="M41.51,98.94c-23.3-18.29-32-43.32-34.34-71.59,3.34-.55,6.47-1,9.55-1.6a68.4,68.4,0,0,0,22.39-9.22,3,3,0,0,1,2.57-.27A69.32,69.32,0,0,0,74.22,26.38a117.28,117.28,0,0,1-7.54,38A81.51,81.51,0,0,1,41.51,98.94Z"/></g><polyline class="cls-4" points="56.75 87.24 6.89 10.65 6.39 0.93 14.25 5.86 64.11 82.45"/><line class="cls-4" x1="13.85" y1="13.29" x2="60.43" y2="84.85"/><rect class="cls-5" x="43" y="84.37" width="38.06" height="5.85" transform="translate(161.63 126.63) rotate(146.94)"/><rect class="cls-6" x="64.91" y="87.78" width="10.73" height="24.39" transform="translate(183.71 145.42) rotate(146.94)"/></g></g></svg>