<svg xmlns="http://www.w3.org/2000/svg" viewBox="0 0 107.27 120"><defs><style>.cls-1{fill:#006837;}.cls-2{font-size:60px;font-family:Times-Bold, Times;font-weight:700;}</style></defs><title>vp</title><g id="Layer_2" data-name="Layer 2"><g id="Layer_1-2" data-name="Layer 1"><path class="cls-1" d="M107.24,2.84c0-.31,0-.62,0-.94C107.17.66,106.8.41,105.66,1a31.55,31.55,0,0,1-7.3,2.58,79.29,79.29,0,0,1-12,1.64c-2.67.17-5.34.24-8,.17A70,70,0,0,1,59.66,2.79,15.79,15.79,0,0,1,53.87,0h-.24V120a11.46,11.46,0,0,0,3.1-.58,75.25,75.25,0,0,0,11.47-4.18,38.89,38.89,0,0,0,13-10.21,86.57,86.57,0,0,0,9.8-15.17c3.92-7.39,7.16-15.09,10.5-22.73.47-1.08.25-1.61-.72-2.22-6-3.8-8.14-9.55-7.9-16.31a17.34,17.34,0,0,1,4.48-11.13,13.51,13.51,0,0,1,8.24-4.61c1.62-.24,1.62-.26,1.62-1.95Z"/><path class="cls-1" d="M0,2.84c0-.31,0-.62,0-.94C.1.66.46.41,1.6,1A31.79,31.79,0,0,0,8.91,3.55a79.12,79.12,0,0,0,12,1.64c2.67.17,5.34.24,8,.17A70,70,0,0,0,47.61,2.79,15.79,15.79,0,0,0,53.4,0h.23V120a11.47,11.47,0,0,1-3.09-.58,74.86,74.86,0,0,1-11.47-4.18A38.89,38.89,0,0,1,26,105a86.57,86.57,0,0,1-9.8-15.17c-3.93-7.39-7.16-15.09-10.5-22.73-.47-1.08-.25-1.61.72-2.22,6-3.8,8.14-9.55,7.9-16.31A17.39,17.39,0,0,0,9.86,37.47a13.51,13.51,0,0,0-8.24-4.61C0,32.62,0,32.6,0,30.91Z"/><text class="cls-2" transform="translate(21.54 72.92)">+1</text></g></g></svg>